PathFileType	4	(X/Y/Z)	c:/Users/goper/Files/vsCode/490R/osim_files/C05/C05_Slow_05.trc
DataRate	CameraRate	NumFrames	NumMarkers	Units                	OrigDataRate	OrigDataStartFrame	OrigNumFrames
250.00	250.00	4	36	mm	250.0	1353	2705
                Frame#	Time	LPSIS			LASIS			LTH1			LTH2			LTH3			LTH4			LLFE			LMFE			LSH1			LSH2			LSH3			LSH4			LLMAL			LMMAL			LCAL			LMTP5			LTOE			LMTP1			RPSIS			RASIS			RTH1			RTH2			RTH3			RTH4			RLFE			RMFE			RSH1			RSH2			RSH3			RSH4			RLMAL			RMMAL			RCAL			RMTP1			RTOE			RMTP5		
		X1	Y1	Z1	X2	Y2	Z2	X3	Y3	Z3	X4	Y4	Z4	X5	Y5	Z5	X6	Y6	Z6	X7	Y7	Z7	X8	Y8	Z8	X9	Y9	Z9	X10	Y10	Z10	X11	Y11	Z11	X12	Y12	Z12	X13	Y13	Z13	X14	Y14	Z14	X15	Y15	Z15	X16	Y16	Z16	X17	Y17	Z17	X18	Y18	Z18	X19	Y19	Z19	X20	Y20	Z20	X21	Y21	Z21	X22	Y22	Z22	X23	Y23	Z23	X24	Y24	Z24	X25	Y25	Z25	X26	Y26	Z26	X27	Y27	Z27	X28	Y28	Z28	X29	Y29	Z29	X30	Y30	Z30	X31	Y31	Z31	X32	Y32	Z32	X33	Y33	Z33	X34	Y34	Z34	X35	Y35	Z35	X36	Y36	Z36

1353	5.40800	-646.15765	1025.50696	323.37573	-840.96533	982.59589	394.98343	-731.30109	680.29633	427.54745	-716.12323	620.94891	416.63293	-656.10199	691.35724	435.90976	-651.36841	629.52747	424.06393	-659.80414	520.16614	401.15756	-651.09875	516.07507	282.88855	-505.51007	384.92032	402.49762	-493.24875	343.93777	400.97702	-563.95782	359.80994	413.23654	-543.14301	322.34042	404.50589	-431.87967	120.58807	361.17767	-462.16321	128.75038	278.10391	-367.31592	101.44385	307.31049	-551.95441	36.84475	393.63538	-596.92816	57.29012	333.23102	-582.85828	46.97607	284.83200	-655.37268	1025.12354	215.27103	-850.24530	989.74438	163.46326	-843.60577	644.29639	108.56275	-877.89246	593.05890	122.36711	-910.81464	677.72290	100.56664	-935.24298	622.03387	113.97338	0.00000	0.00000	0.00000	-956.91986	532.42816	138.09656	-931.13831	362.26123	124.61069	-951.44415	318.86606	129.22849	-989.56415	380.40356	125.77603	-1001.55725	335.42102	130.86995	-1055.26758	104.74704	168.31995	-1078.21826	125.21528	252.12280	-1011.42572	62.09831	222.75453	-1222.89600	103.77924	234.56604	-1227.66711	133.90559	185.04785	-1193.19788	83.10868	127.77908
1354	5.41200	-651.12872	1024.91052	322.77005	-845.78210	982.09448	394.73032	-735.60071	679.86865	426.90756	-720.63843	620.35162	415.95325	-660.66364	690.81177	435.06534	-655.85034	629.00806	423.22324	-664.25916	519.62000	400.47388	-655.65894	515.52930	282.27341	-508.80399	385.59192	401.96103	-496.18839	344.67743	400.67368	-567.07532	359.98618	412.75879	-545.90149	322.65677	404.06384	-432.77621	121.79667	361.27551	-463.24164	129.70535	278.17844	-368.23004	103.25764	307.24734	-552.05640	36.84048	393.67258	-597.18115	57.22145	333.34305	-582.97583	46.90341	284.92639	-659.83789	1024.97876	214.59294	-855.36334	989.38531	163.02670	-849.04053	644.03259	108.74883	-883.11279	592.84692	123.08390	-916.21979	677.36432	101.03477	-940.50287	621.59821	114.88377	0.00000	0.00000	0.00000	-961.84680	532.16071	138.69835	-935.78149	362.22617	124.75748	-955.42896	318.45920	129.95624	-993.75867	379.91370	126.42524	-1005.36389	334.82062	131.47371	-1057.61694	104.20007	169.16068	-1081.07373	124.00665	253.06877	-1012.76581	62.60656	223.05174	-1225.15576	100.20512	234.62506	-1230.27441	130.77800	185.75305	-1194.67090	80.64824	128.26544
1355	5.41600	-656.09106	1024.42346	322.12549	-850.65656	981.48468	394.46796	-740.42010	679.07703	426.18686	-725.27020	619.80597	415.20880	-665.20044	690.29407	434.18594	-660.39026	628.50946	422.32483	-668.74249	519.11444	399.78271	-660.30133	514.94220	281.61951	-512.21582	386.28351	401.49985	-499.11761	345.42014	400.32639	-570.28741	360.23740	412.29004	-548.35345	323.22147	403.94269	-433.85333	123.00530	361.45673	-464.33960	130.72122	278.35620	-369.06311	105.08112	307.44946	-552.15985	36.81018	393.73550	-597.42499	57.00915	333.40927	-583.08826	46.83823	285.01590	-664.91364	1024.53650	214.01750	-860.48254	989.06940	162.71906	-854.24054	643.86273	108.90063	-888.24506	592.71265	123.65581	-921.55109	677.05908	101.50423	-945.52197	621.10016	115.74575	0.00000	0.00000	0.00000	-966.59076	531.96057	139.12688	-939.83496	361.85422	125.56818	-959.61884	318.18561	130.56586	-998.03162	379.46024	127.08678	-1009.75769	334.34503	132.32074	-1060.07654	103.68465	169.76541	-1083.92566	122.75378	253.85603	-1014.41498	63.26723	223.65062	-1227.08655	96.39799	235.14050	-1232.95471	127.34391	186.64967	-1196.22339	78.09849	128.87375
1356	5.42000	-661.05688	1023.95306	321.50177	-855.54279	980.88855	394.16953	-745.15967	678.51343	425.44760	-729.88281	619.22314	414.48880	-669.82892	689.74115	433.25696	-665.10632	627.97223	421.44290	-673.30804	518.51385	399.04123	-665.08453	514.40326	280.98819	-515.71539	387.01019	401.00449	-502.12659	346.10168	400.02029	-573.52716	360.42587	411.82452	-551.53204	323.45004	403.27988	-434.84305	124.29535	361.61398	-465.60852	131.74107	278.47034	-370.03940	107.16233	307.49847	-552.32245	36.76878	393.78116	-597.54034	56.67324	333.44876	-583.20978	46.76667	285.11212	-670.70795	1023.98926	213.40012	-865.69867	988.70300	162.44569	-859.30109	643.58826	108.89858	-893.21057	592.59332	124.10445	-926.85797	676.86346	102.04625	-950.35492	620.58014	116.60670	0.00000	0.00000	0.00000	-971.21881	531.75500	139.46053	-944.00494	361.70599	126.17227	-963.76996	318.00116	131.09425	-1002.38635	379.16559	127.63923	-1013.99615	334.00647	132.87448	-1062.39478	103.12196	170.18462	-1086.45142	121.43953	254.50198	-1015.50226	63.84229	223.67331	-1228.83240	92.75262	236.09918	-1235.55237	123.88454	187.61545	-1197.92834	75.41095	129.63451
